<svg version="1.0"
    xmlns="http://www.w3.org/2000/svg" width="50.000000pt" height="50.000000pt" viewBox="0 0 50.000000 50.000000" preserveAspectRatio="xMidYMid meet">

    <g transform="translate(0.000000,50.000000) scale(0.100000,-0.100000)" fill="#000000" stroke="none">
        <path d="M198 461 c-44 -14 -96 -50 -118 -81 l-20 -28 31 -25 32 -25 29 34
c42 48 95 62 150 40 l42 -16 29 28 28 28 -40 22 c-45 25 -122 36 -163 23z"/>
        <path d="M260 250 l0 -40 60 0 c67 0 74 -9 40 -52 l-19 -25 28 -21 c27 -20 30
-20 45 -4 26 29 46 89 46 137 l0 45 -100 0 -100 0 0 -40z"/>
    </g>
</svg>
